<svg fill="#fff" viewBox="1 1 30 30" xmlns="http://www.w3.org/2000/svg"><path d="M18.102 12.129v-.001a2.831 2.831 0 112.831 2.831h-.002a2.83 2.83 0 01-2.83-2.83v-.001zm6.589.006a3.768 3.768 0 10-3.768 3.768 3.773 3.773 0 003.768-3.767zM10.427 23.76l-1.841-.762a3.185 3.185 0 002.868 1.808 3.18 3.18 0 002.93-1.943l.008-.021a3.18 3.18 0 00-4.083-4.194l.022-.007 1.903.787a2.352 2.352 0 011.439 2.164 2.347 2.347 0 01-3.26 2.163l.015.006zm5.547-22.756C8.117 1.005 1.673 7.05 1.036 14.742l-.004.054 8.038 3.322a4.192 4.192 0 012.387-.737h.002c.079 0 .156.005.235.008l3.575-5.176v-.074a5.653 5.653 0 115.653 5.658h-.131l-5.094 3.638c0 .065.005.131.005.199v.003a4.241 4.241 0 01-8.394.861l-.005-.027-5.755-2.383c1.841 6.345 7.601 10.905 14.425 10.905 8.281 0 14.994-6.713 14.994-14.994S24.254 1.005 15.973 1.005h-.001z"/></svg>