<svg version="1.0" xmlns="http://www.w3.org/2000/svg" width="112" height="112" viewBox="0 0 84 84"><path d="M39.5 1c-6 .9-11.1 3.8-15.4 8.6-4.2 4.8-6.1 10-6.1 16.5 0 6.7.8 8.3 4.4 9.5 2.9.9 3.4.8 4.3-1.3.7-1.3.7-2.5.2-2.9-.5-.3-.9-1.9-.9-3.5 0-2.4.6-3.2 2.9-4 2.1-.7 3.1-2 4-4.9.7-2.3 1.8-4 2.6-4s1.5-.6 1.5-1.4c0-1.6 4.2-3.5 8.6-3.8 3.2-.2 8.4 2.4 8.4 4.3 0 .6.5.7 1 .4.6-.4 1.9.4 2.9 1.6 1.7 2.2 1.7 2.3-.2 4.2-1.8 1.8-2.1 1.8-2.9.3-.5-.9-1.7-1.6-2.6-1.6-1.6-.1-1.5-.2.1-1.4 1.7-1.3 1.7-1.5-.9-4.1-2-2-3.2-2.5-5.3-2-3.9.9-6.2 4.4-5.5 8.2.4 2.1.2 3.3-.5 3.3-.6 0-1.1.5-1.1 1.1 0 .7 1 .9 2.7.5 2.2-.6 3.3 0 7.4 4l4.7 4.7 2.7-2.1c2.9-2.3 4.6-2 7.9 1.7 2.5 2.7 3.3 2 4.2-3.4C71 13.1 56.3-1.4 39.5 1z"/><path d="M54.5 17.9c-.6 1.1.9 2.3 1.9 1.4.9-.9.7-2.3-.3-2.3-.6 0-1.2.4-1.6.9zM35.1 32.4c-4.4 4.5-6.9 7.6-6.2 8 .6.4 1.1 1.2 1.1 1.9 0 .6-1.5-.3-3.3-2.1-1.8-1.8-4.2-3.2-5.3-3.2-1.1 0-3.9 2-6.3 4.4-3.1 3.2-5.5 4.7-8.2 5.1-7 1.2-4.1 2.5 5.6 2.5 5.7 0 9.5.4 9.5 1 0 .5-1.6 1-3.5 1-2.4 0-3.5.5-3.5 1.5 0 1.3 3.8 1.5 28 1.5s28-.2 28-1.5c0-1-1.1-1.5-3.5-1.5-1.9 0-3.5-.5-3.5-1 0-.6 3.8-1 9.5-1 9.7 0 12.6-1.3 5.7-2.5-3.1-.5-5.4-2.2-11.3-8.1-4-4.1-7.8-7.4-8.3-7.4-.5 0-1.8.8-2.8 1.7-1.8 1.6-1.7 1.8 2.4 6.2 2.4 2.5 3.4 3.9 2.3 3.1-1.1-.8-5.4-5-9.5-9.2-4.1-4.3-8-7.8-8.5-7.8-.6 0-4.3 3.3-8.4 7.4zM3 66.5V74h7.9c10.8 0 11.5 1.8.9 2.2l-8.3.3-.3 3.2c-.4 4.1.9 4.5 14.3 4.1l10-.3.3-7.8.3-7.7H20c-4.7 0-8-.4-8-1s3.3-1 8-1h8v-7H3v7.5zm28.2 4.7l.3 12.3 10 .3C57 84.2 56 85.1 56 71V59H30.9l.3 12.2zm16.8-.1v5l-4.7-.3c-4.6-.3-4.8-.4-5.1-3.6-.5-5.3.2-6.2 5.3-6.2H48v5.1z"/><path d="M40.2 71.2c.3 2.9.6 3.3 3.3 3.3 2.7 0 3-.4 3.3-3.3.3-3.1.2-3.2-3.3-3.2s-3.6.1-3.3 3.2zM58 66.5V74h8c4.7 0 8 .4 8 1s-3.3 1-8 1h-8v3.5c0 4.3 1.1 4.7 14.5 4.3l10-.3.3-7.8.3-7.7H75c-4.7 0-8-.4-8-1s3.3-1 8-1h8v-7H58v7.5z"/></svg>